<svg width="14" height="11" viewBox="0 0 14 11" fill="none" xmlns="http://www.w3.org/2000/svg">
<path d="M13.7032 0.28418L7.80202 6.72862C7.65015 6.89418 7.4447 6.98711 7.23055 6.98711C7.0164 6.98711 6.81095 6.89418 6.65908 6.72862L0.810598 0.333069C0.792618 0.405531 0.783085 0.4802 0.782227 0.555291V9.44418C0.782227 9.67993 0.867629 9.90602 1.01965 10.0727C1.17166 10.2394 1.37784 10.3331 1.59283 10.3331H12.9412C13.1562 10.3331 13.3624 10.2394 13.5144 10.0727C13.6664 9.90602 13.7518 9.67993 13.7518 9.44418V0.555291C13.7486 0.462693 13.7322 0.371218 13.7032 0.28418ZM2.14809 9.44418H1.58472V8.80862L4.53125 5.60418L5.10273 6.23085L2.14809 9.44418ZM12.9331 9.44418H12.3657L9.41107 6.23085L9.98254 5.60418L12.9291 8.80862L12.9331 9.44418Z" fill="#E8C300"/>
</svg>
